<svg width="32" height="32" viewBox="0 0 32 32" fill="none" xmlns="http://www.w3.org/2000/svg">
<rect width="32" height="32" rx="16" fill="#B9BFD0"/>
<path d="M10.9327 24.8766L5.82047 27.5603C5.52047 27.7178 5.25086 27.9113 5 28.1222C7.98057 30.5409 11.8282 32 16.032 32C20.2048 32 24.0278 30.5626 27 28.177C26.7259 27.9542 26.4285 27.7539 26.0987 27.5958L20.6244 24.9619C19.9171 24.6215 19.4703 23.9259 19.4703 23.1649V21.0978C19.6242 20.9292 19.8001 20.7126 19.9882 20.4569C20.7343 19.4427 21.2988 18.327 21.6899 17.1566C22.3921 16.9481 22.9093 16.324 22.9093 15.5823V13.3759C22.9093 12.8905 22.685 12.4568 22.3365 12.1532V8.96358C22.3365 8.96358 23.0173 4 16.0326 4C9.04802 4 9.72883 8.96358 9.72883 8.96358V12.1532C9.3797 12.4568 9.15599 12.8905 9.15599 13.3759V15.5823C9.15599 16.1635 9.47345 16.6749 9.94866 16.9705C10.5215 19.3705 12.0215 21.0978 12.0215 21.0978V23.1138C12.0208 23.8481 11.6032 24.5245 10.9327 24.8766Z" fill="#E7ECED"/>
</svg>
